<svg width="28" height="19" viewBox="0 0 28 19" fill="none" xmlns="http://www.w3.org/2000/svg">
<path d="M6.44091 0.192564C13.5796 -1.23475 27.8572 5.6189 28 9.33071C28 12.4718 15.8641 20.1816 6.44091 18.7534C-2.98234 15.8978 -1.26897 2.19144 6.44091 0.192564Z" fill="#FF4E16"/>
<path d="M9.15525 10.8593H6.76118L6.3774 11.9923H4.74176L7.06272 5.5777H8.87198L11.1929 11.9923H9.53903L9.15525 10.8593ZM8.75319 9.65309L7.95821 7.30472L7.17238 9.65309H8.75319Z" fill="#FFEEE8"/>
<path d="M12.017 9.43379C12.017 8.9099 12.1144 8.44997 12.3094 8.054C12.5104 7.65804 12.7815 7.35345 13.1226 7.14024C13.4638 6.92703 13.8445 6.82042 14.2648 6.82042C14.5999 6.82042 14.9045 6.89047 15.1786 7.03059C15.4588 7.1707 15.6781 7.35954 15.8365 7.59712V5.23047H17.399V11.9923H15.8365V11.2613C15.6903 11.505 15.4801 11.6999 15.206 11.8461C14.938 11.9923 14.6242 12.0654 14.2648 12.0654C13.8445 12.0654 13.4638 11.9588 13.1226 11.7456C12.7815 11.5263 12.5104 11.2187 12.3094 10.8227C12.1144 10.4207 12.017 9.95768 12.017 9.43379ZM15.8365 9.44292C15.8365 9.05305 15.7269 8.74542 15.5076 8.52002C15.2943 8.29463 15.0324 8.18193 14.7217 8.18193C14.411 8.18193 14.146 8.29463 13.9267 8.52002C13.7135 8.73933 13.6069 9.04391 13.6069 9.43379C13.6069 9.82366 13.7135 10.1343 13.9267 10.3658C14.146 10.5912 14.411 10.7039 14.7217 10.7039C15.0324 10.7039 15.2943 10.5912 15.5076 10.3658C15.7269 10.1404 15.8365 9.8328 15.8365 9.44292Z" fill="#FFEEE8"/>
</svg>
