<svg width="18" height="18" viewBox="0 0 18 18" fill="none" xmlns="http://www.w3.org/2000/svg">
<path fill-rule="evenodd" clip-rule="evenodd" d="M9.00033 17.3327C13.6027 17.3327 17.3337 13.6017 17.3337 8.99935C17.3337 4.39698 13.6027 0.666016 9.00033 0.666016C4.39795 0.666016 0.666992 4.39698 0.666992 8.99935C0.666992 13.6017 4.39795 17.3327 9.00033 17.3327ZM12.3337 9.83268C12.7939 9.83268 13.167 9.45959 13.167 8.99935C13.167 8.53911 12.7939 8.16602 12.3337 8.16602H9.83366V4.83268C9.83366 4.37245 9.46056 3.99935 9.00033 3.99935C8.54009 3.99935 8.16699 4.37244 8.16699 4.83268V8.99935C8.16699 9.45959 8.54009 9.83268 9.00033 9.83268H12.3337Z" fill="#888888"/>
</svg>
