<svg width="32" height="32" viewBox="0 0 32 32" fill="none" xmlns="http://www.w3.org/2000/svg">
<path d="M30.2222 0H1.77778C0.794667 0 0 0.796444 0 1.77778V30.2222C0 31.2036 0.794667 32 1.77778 32H17.0933V19.6267H12.9369V14.7822H17.0933V11.2267C17.0933 7.09333 19.6178 4.84089 23.3156 4.84089C24.5582 4.83733 25.8027 4.90133 27.04 5.03111V9.33333H24.4889C22.4836 9.33333 22.0924 10.2898 22.0924 11.6889V14.7733H26.8871L26.2649 19.6178H22.0907V32H30.2222C31.2053 32 32 31.2036 32 30.2222V1.77778C32 0.796444 31.2053 0 30.2222 0Z" fill="#0163E0"/>
</svg>
