<svg width="24" height="24" viewBox="0 0 24 24" fill="none" xmlns="http://www.w3.org/2000/svg">
<path d="M23.5492 10.7946L12.6435 0.578169C12.476 0.421354 12.2551 0.333984 12.0257 0.333984C11.7962 0.333984 11.5754 0.421354 11.4079 0.578169L0.508649 10.7946C0.427155 10.8722 0.370638 10.9724 0.346348 11.0823C0.322058 11.1921 0.331077 11.3065 0.372267 11.4112C0.413456 11.5159 0.484958 11.6061 0.577594 11.67C0.670229 11.7339 0.77979 11.7688 0.892311 11.77H2.60915V22.4418C2.60915 22.6488 2.69135 22.847 2.83769 22.9933C2.98404 23.1397 3.18256 23.222 3.38953 23.222H7.94173C8.22631 23.222 8.49921 23.1088 8.70044 22.9076C8.90167 22.7064 9.01472 22.4336 9.01472 22.149V18.143C8.99889 17.4183 9.23843 16.7113 9.69139 16.1454C10.1443 15.5795 10.7819 15.1909 11.4924 15.0476C11.92 14.9747 12.3585 14.996 12.777 15.1102C13.1955 15.2244 13.584 15.4285 13.9154 15.7084C14.2467 15.9884 14.5129 16.3373 14.6954 16.7309C14.8778 17.1245 14.9721 17.5533 14.9716 17.9871V22.149C14.9716 22.2905 14.9996 22.4306 15.0539 22.5612C15.1082 22.6918 15.1879 22.8104 15.2882 22.9101C15.3885 23.0099 15.5076 23.0887 15.6385 23.1423C15.7695 23.1958 15.9097 23.2228 16.0511 23.222H20.6033C20.8103 23.222 21.0088 23.1397 21.1551 22.9933C21.3015 22.847 21.3837 22.6488 21.3837 22.4418V11.744H23.107C23.2196 11.7427 23.3291 11.7079 23.4218 11.644C23.5144 11.5801 23.5859 11.4902 23.6271 11.3855C23.6683 11.2808 23.6773 11.1661 23.653 11.0562C23.6287 10.9463 23.5722 10.8461 23.4907 10.7685" fill="#1D1D1D"/>
</svg>
