<svg width="20" height="20" viewBox="0 0 20 20" fill="none" xmlns="http://www.w3.org/2000/svg">
<path d="M19.8996 8.96621L10.5518 0.209301C10.4083 0.0748887 10.219 0 10.0223 0C9.82562 0 9.6363 0.0748887 9.49274 0.209301L0.150549 8.96621C0.0806977 9.03273 0.0322542 9.11862 0.0114345 9.2128C-0.00938523 9.30698 -0.0016546 9.40502 0.0336506 9.49478C0.0689559 9.58453 0.130243 9.66184 0.209645 9.7166C0.289047 9.77136 0.382956 9.80123 0.479403 9.80233H1.95098V18.9495C1.95098 19.1269 2.02143 19.2969 2.14687 19.4223C2.27232 19.5477 2.44248 19.6183 2.61988 19.6183H6.52176C6.76569 19.6183 6.9996 19.5213 7.17208 19.3488C7.34456 19.1763 7.44147 18.9425 7.44147 18.6986V15.2649C7.4279 14.6437 7.63322 14.0377 8.02147 13.5526C8.40972 13.0676 8.95616 12.7345 9.5652 12.6117C9.93174 12.5492 10.3075 12.5675 10.6662 12.6653C11.025 12.7632 11.358 12.9381 11.642 13.1781C11.9261 13.4181 12.1542 13.7172 12.3106 14.0545C12.467 14.3918 12.5478 14.7594 12.5474 15.1312V18.6986C12.5474 18.8198 12.5713 18.9399 12.6179 19.0519C12.6645 19.1638 12.7327 19.2655 12.8187 19.351C12.9047 19.4365 13.0068 19.5041 13.119 19.55C13.2312 19.5958 13.3514 19.619 13.4727 19.6183H17.3745C17.5519 19.6183 17.7221 19.5477 17.8475 19.4223C17.973 19.2969 18.0434 19.1269 18.0434 18.9495V9.78001H19.5206C19.617 9.77891 19.711 9.74904 19.7904 9.69428C19.8698 9.63952 19.931 9.56249 19.9664 9.47273C20.0017 9.38297 20.0094 9.28466 19.9886 9.19049C19.9677 9.09631 19.9193 9.01041 19.8495 8.9439" fill="#FF4E16"/>
</svg>
