<svg width="26" height="26" viewBox="0 0 26 26" fill="none" xmlns="http://www.w3.org/2000/svg">
<path d="M21.9997 5.92829C21.9997 6.99341 21.1363 7.85686 20.0711 7.85686C19.006 7.85686 18.1426 6.99341 18.1426 5.92829C18.1426 4.86317 19.006 3.99972 20.0711 3.99972C21.1363 3.99972 21.9997 4.86317 21.9997 5.92829Z" fill="white"/>
<path fill-rule="evenodd" clip-rule="evenodd" d="M12.9997 19.4283C16.5501 19.4283 19.4283 16.5501 19.4283 12.9997C19.4283 9.44932 16.5501 6.57115 12.9997 6.57115C9.44932 6.57115 6.57115 9.44932 6.57115 12.9997C6.57115 16.5501 9.44932 19.4283 12.9997 19.4283ZM12.9997 16.8569C15.13 16.8569 16.8569 15.13 16.8569 12.9997C16.8569 10.8695 15.13 9.14258 12.9997 9.14258C10.8695 9.14258 9.14258 10.8695 9.14258 12.9997C9.14258 15.13 10.8695 16.8569 12.9997 16.8569Z" fill="white"/>
<path fill-rule="evenodd" clip-rule="evenodd" d="M0.142578 12.4854C0.142578 8.16503 0.142578 6.00483 0.983385 4.35465C1.72298 2.90312 2.90312 1.72298 4.35465 0.983385C6.00483 0.142578 8.16503 0.142578 12.4854 0.142578H13.514C17.8344 0.142578 19.9946 0.142578 21.6448 0.983385C23.0963 1.72298 24.2765 2.90312 25.0161 4.35465C25.8569 6.00483 25.8569 8.16503 25.8569 12.4854V13.514C25.8569 17.8344 25.8569 19.9946 25.0161 21.6448C24.2765 23.0963 23.0963 24.2765 21.6448 25.0161C19.9946 25.8569 17.8344 25.8569 13.514 25.8569H12.4854C8.16503 25.8569 6.00483 25.8569 4.35465 25.0161C2.90312 24.2765 1.72298 23.0963 0.983385 21.6448C0.142578 19.9946 0.142578 17.8344 0.142578 13.514V12.4854ZM12.4854 2.71401H13.514C15.7166 2.71401 17.214 2.71601 18.3713 2.81057C19.4987 2.90268 20.0752 3.06963 20.4774 3.27454C21.4451 3.76761 22.2318 4.55436 22.7249 5.52206C22.9298 5.92423 23.0968 6.50075 23.1889 7.6281C23.2834 8.78548 23.2854 10.2828 23.2854 12.4854V13.514C23.2854 15.7166 23.2834 17.214 23.1889 18.3713C23.0968 19.4987 22.9298 20.0752 22.7249 20.4774C22.2318 21.4451 21.4451 22.2318 20.4774 22.7249C20.0752 22.9298 19.4987 23.0968 18.3713 23.1889C17.214 23.2834 15.7166 23.2854 13.514 23.2854H12.4854C10.2828 23.2854 8.78548 23.2834 7.6281 23.1889C6.50075 23.0968 5.92423 22.9298 5.52206 22.7249C4.55436 22.2318 3.76761 21.4451 3.27454 20.4774C3.06963 20.0752 2.90268 19.4987 2.81057 18.3713C2.71601 17.214 2.71401 15.7166 2.71401 13.514V12.4854C2.71401 10.2828 2.71601 8.78548 2.81057 7.6281C2.90268 6.50075 3.06963 5.92423 3.27454 5.52206C3.76761 4.55436 4.55436 3.76761 5.52206 3.27454C5.92423 3.06963 6.50075 2.90268 7.6281 2.81057C8.78548 2.71601 10.2828 2.71401 12.4854 2.71401Z" fill="white"/>
</svg>
