<svg width="48" height="48" viewBox="0 0 48 48" fill="none" xmlns="http://www.w3.org/2000/svg">
<path d="M41.8941 16.6109C41.874 15.0961 41.5904 13.5964 41.0561 12.1789C40.5928 10.9832 39.8852 9.89729 38.9785 8.99055C38.0717 8.08382 36.9858 7.37619 35.7901 6.91289C34.3908 6.3876 32.9125 6.10357 31.4181 6.07289C29.4941 5.98689 28.8841 5.96289 24.0001 5.96289C19.1161 5.96289 18.4901 5.96289 16.5801 6.07289C15.0865 6.1038 13.6088 6.38783 12.2101 6.91289C11.0143 7.37587 9.92818 8.08338 9.02141 8.99016C8.11463 9.89693 7.40712 10.983 6.94414 12.1789C6.4178 13.5772 6.13439 15.0551 6.10614 16.5489C6.02014 18.4749 5.99414 19.0849 5.99414 23.9689C5.99414 28.8529 5.99414 29.4769 6.10614 31.3889C6.13614 32.8849 6.41814 34.3609 6.94414 35.7629C7.4079 36.9584 8.11593 38.044 9.02301 38.9504C9.93009 39.8568 11.0163 40.564 12.2121 41.0269C13.607 41.5733 15.0849 41.8776 16.5821 41.9269C18.5081 42.0129 19.1181 42.0389 24.0021 42.0389C28.8861 42.0389 29.5121 42.0389 31.4221 41.9269C32.9164 41.8975 34.3949 41.6141 35.7941 41.0889C36.9895 40.6251 38.0752 39.9172 38.9818 39.0106C39.8885 38.1039 40.5963 37.0183 41.0601 35.8229C41.5861 34.4229 41.8681 32.9469 41.8981 31.4489C41.9841 29.5249 42.0101 28.9149 42.0101 24.0289C42.0061 19.1449 42.0061 18.5249 41.8941 16.6109V16.6109ZM23.9881 33.2049C18.8801 33.2049 14.7421 29.0669 14.7421 23.9589C14.7421 18.8509 18.8801 14.7129 23.9881 14.7129C26.4403 14.7129 28.7921 15.687 30.526 17.421C32.26 19.1549 33.2341 21.5067 33.2341 23.9589C33.2341 26.4111 32.26 28.7628 30.526 30.4968C28.7921 32.2308 26.4403 33.2049 23.9881 33.2049V33.2049ZM33.6021 16.5269C32.4081 16.5269 31.4461 15.5629 31.4461 14.3709C31.4461 14.0879 31.5019 13.8077 31.6102 13.5462C31.7185 13.2848 31.8772 13.0472 32.0773 12.8471C32.2774 12.647 32.515 12.4882 32.7765 12.3799C33.0379 12.2716 33.3181 12.2159 33.6011 12.2159C33.8841 12.2159 34.1644 12.2716 34.4258 12.3799C34.6873 12.4882 34.9248 12.647 35.125 12.8471C35.3251 13.0472 35.4838 13.2848 35.5921 13.5462C35.7004 13.8077 35.7561 14.0879 35.7561 14.3709C35.7561 15.5629 34.7921 16.5269 33.6021 16.5269Z" fill="#1D1D1D"/>
<path d="M23.9884 29.9632C27.3054 29.9632 29.9944 27.2742 29.9944 23.9572C29.9944 20.6401 27.3054 17.9512 23.9884 17.9512C20.6714 17.9512 17.9824 20.6401 17.9824 23.9572C17.9824 27.2742 20.6714 29.9632 23.9884 29.9632Z" fill="#1D1D1D"/>
</svg>
