<svg width="18" height="18" viewBox="0 0 18 18" fill="none" xmlns="http://www.w3.org/2000/svg">
<path d="M12.2309 0.384766H5.76938C2.796 0.384766 0.384766 2.796 0.384766 5.76938V12.2309C0.384766 15.2043 2.796 17.6155 5.76938 17.6155H12.2309C15.2043 17.6155 17.6155 15.2043 17.6155 12.2309V5.76938C17.6155 2.796 15.2043 0.384766 12.2309 0.384766ZM16.0002 12.2309C16.0002 14.3094 14.3094 16.0002 12.2309 16.0002H5.76938C3.69092 16.0002 2.00015 14.3094 2.00015 12.2309V5.76938C2.00015 3.69092 3.69092 2.00015 5.76938 2.00015H12.2309C14.3094 2.00015 16.0002 3.69092 16.0002 5.76938V12.2309Z" fill="#FF4E16"/>
<path d="M9.00056 4.69141C6.62164 4.69141 4.69287 6.62018 4.69287 8.9991C4.69287 11.378 6.62164 13.3068 9.00056 13.3068C11.3795 13.3068 13.3083 11.378 13.3083 8.9991C13.3083 6.62018 11.3795 4.69141 9.00056 4.69141ZM9.00056 11.6914C7.51656 11.6914 6.30826 10.4831 6.30826 8.9991C6.30826 7.51402 7.51656 6.30679 9.00056 6.30679C10.4846 6.30679 11.6929 7.51402 11.6929 8.9991C11.6929 10.4831 10.4846 11.6914 9.00056 11.6914Z" fill="#FF4E16"/>
<path d="M13.6311 4.94292C13.9481 4.94292 14.2051 4.68593 14.2051 4.36892C14.2051 4.05191 13.9481 3.79492 13.6311 3.79492C13.3141 3.79492 13.0571 4.05191 13.0571 4.36892C13.0571 4.68593 13.3141 4.94292 13.6311 4.94292Z" fill="#FF4E16"/>
</svg>
