<svg width="19" height="18" viewBox="0 0 19 18" fill="none" xmlns="http://www.w3.org/2000/svg">
<path d="M18.5603 11.2868V17.8832H14.7359V11.7289C14.7359 10.1836 14.1837 9.12828 12.799 9.12828C11.7423 9.12828 11.1145 9.83875 10.8373 10.5267C10.7366 10.7725 10.7106 11.114 10.7106 11.4588V17.883H6.88591C6.88591 17.883 6.93725 7.45949 6.88591 6.38052H10.7109V8.01053C10.7032 8.02336 10.6924 8.03591 10.6855 8.04817H10.7109V8.01053C11.2192 7.22847 12.1256 6.11042 14.1578 6.11042C16.6739 6.11042 18.5603 7.7544 18.5603 11.2868ZM2.88491 0.835938C1.57663 0.835938 0.720703 1.69472 0.720703 2.82303C0.720703 3.92739 1.55182 4.81098 2.83472 4.81098H2.85953C4.19348 4.81098 5.02289 3.92739 5.02289 2.82303C4.9975 1.69472 4.19348 0.835938 2.88491 0.835938ZM0.948019 17.8832H4.77133V6.38052H0.948019V17.8832Z" fill="#FF4E16"/>
</svg>
