<svg width="21" height="20" viewBox="0 0 21 20" fill="none" xmlns="http://www.w3.org/2000/svg">
<path d="M20.7551 12.4486V19.8696H16.4526V12.946C16.4526 11.2075 15.8314 10.0203 14.2736 10.0203C13.0848 10.0203 12.3786 10.8196 12.0667 11.5935C11.9534 11.8701 11.9242 12.2542 11.9242 12.6421V19.8693H7.62141C7.62141 19.8693 7.67916 8.1429 7.62141 6.92906H11.9246V8.76282C11.9159 8.77726 11.9037 8.79137 11.896 8.80517H11.9246V8.76282C12.4963 7.883 13.5161 6.6252 15.8022 6.6252C18.6329 6.6252 20.7551 8.47468 20.7551 12.4486ZM3.12029 0.691406C1.64847 0.691406 0.685547 1.65754 0.685547 2.92689C0.685547 4.16928 1.62055 5.16333 3.06381 5.16333H3.09173C4.59242 5.16333 5.52551 4.16928 5.52551 2.92689C5.49695 1.65754 4.59242 0.691406 3.12029 0.691406ZM0.941278 19.8696H5.2425V6.92906H0.941278V19.8696Z" fill="white"/>
</svg>
