<svg width="17" height="16" viewBox="0 0 17 16" fill="none" xmlns="http://www.w3.org/2000/svg">
<path d="M16.7435 9.8088V16H13.154V10.2237C13.154 8.77337 12.6358 7.7829 11.3361 7.7829C10.3443 7.7829 9.75514 8.44972 9.49494 9.0954C9.40044 9.32615 9.37609 9.64658 9.37609 9.97022V15.9997H5.78632C5.78632 15.9997 5.83451 6.21663 5.78632 5.20395H9.37635V6.73381C9.36913 6.74586 9.35895 6.75764 9.35253 6.76915H9.37635V6.73381C9.85338 5.9998 10.7041 4.95044 12.6114 4.95044C14.973 4.95044 16.7435 6.49342 16.7435 9.8088ZM2.03113 0C0.803223 0 -0.00012207 0.806023 -0.00012207 1.86502C-0.00012207 2.90152 0.779934 3.73083 1.98402 3.73083H2.00731C3.25931 3.73083 4.03776 2.90152 4.03776 1.86502C4.01393 0.806023 3.2593 0 2.03113 0ZM0.213229 16H3.80165V5.20395H0.213229V16Z" fill="#1275B1"/>
</svg>
