<svg width="44" height="44" viewBox="0 0 44 44" fill="none" xmlns="http://www.w3.org/2000/svg">
<rect x="2.75" y="2.75" width="38.5" height="38.5" rx="19.25" fill="#1275B1"/>
<path d="M17.3505 13.3267C17.3505 14.6117 16.2367 15.6534 14.8628 15.6534C13.4888 15.6534 12.375 14.6117 12.375 13.3267C12.375 12.0417 13.4888 11 14.8628 11C16.2367 11 17.3505 12.0417 17.3505 13.3267Z" fill="white"/>
<path d="M12.7152 17.3636H16.9678V30.25H12.7152V17.3636Z" fill="white"/>
<path d="M23.8144 17.3636H19.5619V30.25H23.8144C23.8144 30.25 23.8144 26.1932 23.8144 23.6567C23.8144 22.1342 24.3343 20.6051 26.4085 20.6051C28.7526 20.6051 28.7385 22.5975 28.7276 24.141C28.7133 26.1586 28.7474 28.2175 28.7474 30.25H33V23.4489C32.964 19.1061 31.8324 17.1051 28.1095 17.1051C25.8987 17.1051 24.5282 18.1088 23.8144 19.0169V17.3636Z" fill="white"/>
</svg>
