<svg width="14" height="18" viewBox="0 0 14 18" fill="none" xmlns="http://www.w3.org/2000/svg">
<path fill-rule="evenodd" clip-rule="evenodd" d="M7.79292 16.8564C10.8419 14.8861 13.6663 11.4091 13.6663 7.1475C13.6663 3.56787 10.6816 0.666016 6.99967 0.666016C3.31778 0.666016 0.333008 3.56787 0.333008 7.1475C0.333008 11.4091 3.15746 14.8861 6.20643 16.8564C6.99967 17.369 6.99967 17.369 7.79292 16.8564ZM6.99967 10.666C8.84062 10.666 10.333 9.17363 10.333 7.33268C10.333 5.49173 8.84062 3.99935 6.99967 3.99935C5.15872 3.99935 3.66634 5.49173 3.66634 7.33268C3.66634 9.17363 5.15872 10.666 6.99967 10.666Z" fill="#1D1D1D"/>
</svg>
 