<svg width="31" height="31" viewBox="0 0 31 31" fill="none" xmlns="http://www.w3.org/2000/svg">
<path fill-rule="evenodd" clip-rule="evenodd" d="M6.73309 19.9813C5.52847 20.5403 4.43172 21.307 3.49309 22.2464C1.43809 24.2976 0.275585 27.0051 0.200586 29.8926C0.199585 29.9326 0.206606 29.9724 0.221233 30.0097C0.235861 30.047 0.257799 30.0809 0.285757 30.1096C0.313715 30.1383 0.347126 30.161 0.38402 30.1766C0.420916 30.1921 0.46055 30.2001 0.500586 30.2001H2.60059C2.76184 30.2001 2.89684 30.0726 2.90059 29.9113C2.97559 27.7363 3.85684 25.7001 5.40184 24.1551C7.01809 22.5388 9.16684 21.6501 11.4506 21.6501C12.5744 21.647 13.6876 21.8668 14.7259 22.2967C15.1699 22.4806 15.5964 22.7014 16.0011 22.9561H17.3994C17.6175 22.9561 17.8104 22.8148 17.8762 22.607L18.3001 21.2673C17.6425 20.7627 16.9303 20.3312 16.1756 19.9813C17.8706 18.6051 18.9581 16.5051 18.9581 14.1501C18.9581 10.0476 15.6618 6.71385 11.5706 6.6501C7.41559 6.58635 3.95059 9.9951 3.95059 14.1501C3.95059 16.5051 5.03434 18.6051 6.73309 19.9813ZM14.8443 17.5438C13.9406 18.4514 12.7331 18.9501 11.4506 18.9501C10.8194 18.9519 10.1942 18.8286 9.61101 18.5872C9.02783 18.3458 8.49832 17.9912 8.05309 17.5438C7.14559 16.6364 6.64684 15.4326 6.64684 14.1501C6.64684 12.8526 7.15684 11.6339 8.08684 10.7226C8.99434 9.83385 10.2281 9.33885 11.4993 9.3501C12.7856 9.3651 13.9893 9.87885 14.8893 10.8013C15.7481 11.6826 16.2393 12.8714 16.2506 14.1013C16.2594 14.7402 16.1394 15.3742 15.8978 15.9657C15.6562 16.5571 15.2979 17.0939 14.8443 17.5438ZM20.8968 14.1501C20.8968 14.4839 20.8781 14.8139 20.8443 15.1401C20.8256 15.2901 20.9231 15.4289 21.0693 15.4663C22.5431 15.8376 23.8931 16.6026 24.9956 17.7051C26.5443 19.2501 27.4256 21.2863 27.4968 23.4613C27.5006 23.6226 27.6356 23.7501 27.7968 23.7501H29.9006C29.9406 23.7501 29.9803 23.7421 30.0172 23.7266C30.054 23.711 30.0875 23.6883 30.1154 23.6596C30.1434 23.6309 30.1653 23.597 30.1799 23.5597C30.1946 23.5224 30.2016 23.4826 30.2006 23.4426C30.1256 20.5513 28.9631 17.8438 26.9081 15.7926C25.9556 14.8401 24.8568 14.0788 23.6643 13.5276C25.3631 12.1514 26.4468 10.0513 26.4468 7.69635C26.4468 3.5451 22.9818 0.136349 18.8231 0.200099C15.9431 0.245099 13.4531 1.9101 12.2343 4.32135C12.1406 4.50885 12.2606 4.73385 12.4706 4.75635C13.1868 4.83135 13.8843 4.9926 14.5443 5.22135C14.6718 5.26635 14.8181 5.2176 14.8931 5.10135C15.1068 4.77135 15.3618 4.46385 15.6581 4.18635C16.5318 3.36885 17.6868 2.9076 18.8831 2.89635C20.2068 2.88135 21.4518 3.39885 22.3781 4.3476C23.2218 5.2101 23.7056 6.35385 23.7393 7.5576C23.7593 8.22202 23.6406 8.88332 23.3907 9.49929C23.1408 10.1153 22.7653 10.6724 22.2881 11.1351C21.8831 11.5326 21.4143 11.8476 20.9043 12.0764C20.7806 12.1326 20.7093 12.2713 20.7356 12.4063C20.8406 12.9726 20.8968 13.5539 20.8968 14.1501Z" fill="#FF4E16"/>
</svg>
