<svg width="24" height="24" viewBox="0 0 24 24" fill="none" xmlns="http://www.w3.org/2000/svg">
<path d="M0.997485 7.81016C2.34217 9.96619 5.05989 13.0923 7.9762 16.0086C10.8925 18.9249 14.0188 21.6428 16.1748 22.9875C19.2273 24.8882 21.911 22.3462 23.2273 20.6894C23.5117 20.329 23.6663 19.8833 23.6663 19.4242C23.6663 18.9651 23.5117 18.5194 23.2273 18.159C22.1358 16.7865 20.6086 15.8277 18.8982 15.4412C18.5081 15.3598 18.1027 15.395 17.7325 15.5423C17.3622 15.6896 17.0435 15.9424 16.8159 16.2695C16.2486 17.0412 15.2613 17.7561 13.8372 16.3377L10.7507 13.2512L7.65847 10.1589C6.24003 8.74046 6.95492 7.74202 7.72656 7.18599C8.05357 6.957 8.30632 6.6373 8.45354 6.26622C8.60076 5.89514 8.63601 5.48885 8.55494 5.09795C8.17154 3.38783 7.21205 1.86165 5.83722 0.774753C5.47722 0.489407 5.03132 0.333984 4.57195 0.333984C4.11258 0.333984 3.66671 0.489407 3.30671 0.774753C1.64997 2.08539 -0.891865 4.74634 1.00884 7.82152" fill="#1D1D1D"/>
</svg>
