<svg width="26" height="30" viewBox="0 0 26 30" fill="none" xmlns="http://www.w3.org/2000/svg">
<path d="M25.2592 21.2225V21.2225C24.9196 17.7073 23.0905 14.5059 20.2346 12.4282V11.8111V11.8112C20.2183 7.04287 17.4747 2.70452 13.1735 0.645987V0.645987C13.038 0.58415 12.8822 0.58415 12.7467 0.645987L12.7467 0.645987C8.44386 2.70525 5.69982 7.04607 5.68547 11.8162V12.4282H5.68547C2.82766 14.5048 0.996588 17.7064 0.65576 21.2225H0.65576C0.645253 21.3616 0.691655 21.4989 0.784332 21.6031H0.784332C0.880037 21.7063 1.01387 21.7658 1.15462 21.7677H5.78319L6.15862 23.0739C6.52998 24.3516 7.69777 25.2327 9.02833 25.2391H9.82547V25.2391C10.464 26.7598 11.4094 28.1324 12.6026 29.2711C12.695 29.3526 12.8137 29.3982 12.9369 29.3997C13.0608 29.4017 13.1806 29.3556 13.2712 29.2711L13.2712 29.2711C14.4791 28.1373 15.4372 26.7641 16.0843 25.2391H16.8866C18.2107 25.227 19.3695 24.3464 19.7358 23.0739L20.1112 21.7677H24.8272C24.9453 21.7593 25.0558 21.7059 25.1358 21.6185C25.2357 21.5125 25.2812 21.3665 25.2592 21.2225L25.2592 21.2225ZM5.68547 13.6934V20.7751H1.71004C2.11548 18.0047 3.53151 15.4822 5.68547 13.6934V13.6934ZM12.9575 28.2117V28.2117C12.1289 27.3366 11.448 26.3326 10.9415 25.2391H14.9632H14.9632C14.4616 26.3329 13.7841 27.3371 12.9575 28.2117ZM18.7843 22.8014C18.5387 23.6563 17.7606 24.2482 16.8712 24.2568H9.0489C8.16118 24.2529 7.38221 23.6645 7.13576 22.8117L6.67804 21.2071V11.8162V11.8161C6.68225 7.50757 9.11048 3.56802 12.9576 1.62819L12.9576 1.62819C16.8075 3.56579 19.2382 7.50627 19.242 11.8162V21.1968L18.7843 22.8014ZM20.2346 20.7751V13.6934C22.3855 15.484 23.7994 18.0059 24.2049 20.7751H20.2346Z" fill="white"/>
</svg>
