<svg width="9" height="16" viewBox="0 0 9 16" fill="none" xmlns="http://www.w3.org/2000/svg">
<path d="M4.83424 7.08333C2.94258 6.59167 2.33424 6.08333 2.33424 5.29167C2.33424 4.38333 3.17591 3.75 4.58424 3.75C6.06758 3.75 6.61758 4.45833 6.66758 5.5H8.50924C8.45091 4.06667 7.57591 2.75 5.83424 2.325V0.5H3.33424V2.3C1.71758 2.65 0.417578 3.7 0.417578 5.30833C0.417578 7.23333 2.00924 8.19167 4.33424 8.75C6.41758 9.25 6.83424 9.98333 6.83424 10.7583C6.83424 11.3333 6.42591 12.25 4.58424 12.25C2.86758 12.25 2.19258 11.4833 2.10091 10.5H0.267578C0.367578 12.325 1.73424 13.35 3.33424 13.6917V15.5H5.83424V13.7083C7.45924 13.4 8.75091 12.4583 8.75091 10.75C8.75091 8.38333 6.72591 7.575 4.83424 7.08333Z" fill="#1D1D1D"/>
</svg>
