<svg width="40" height="32" viewBox="0 0 40 32" fill="none" xmlns="http://www.w3.org/2000/svg">
<path d="M39.3788 3.76471C37.9294 4.42353 36.3671 4.85647 34.7482 5.06353C36.4047 4.06588 37.6847 2.48471 38.2871 0.583529C36.7247 1.52471 34.9929 2.18353 33.1671 2.56C31.68 0.941177 29.5906 0 27.2188 0C22.7953 0 19.1812 3.61412 19.1812 8.07529C19.1812 8.71529 19.2565 9.33647 19.3882 9.92C12.6871 9.58118 6.72 6.36235 2.74824 1.48706C2.05177 2.67294 1.65647 4.06588 1.65647 5.53412C1.65647 8.33882 3.06824 10.8235 5.25177 12.2353C3.9153 12.2353 2.67294 11.8588 1.58118 11.2941V11.3506C1.58118 15.2659 4.36706 18.5412 8.05647 19.2753C6.87196 19.5995 5.62842 19.6446 4.42353 19.4071C4.93479 21.0117 5.93607 22.4158 7.28662 23.422C8.63717 24.4281 10.2691 24.9858 11.9529 25.0165C9.0986 27.2761 5.56046 28.4975 1.92 28.48C1.28 28.48 0.64 28.4424 0 28.3671C3.57647 30.6635 7.83059 32 12.3859 32C27.2188 32 35.3694 19.6894 35.3694 9.01647C35.3694 8.65882 35.3694 8.32 35.3506 7.96235C36.9318 6.83294 38.2871 5.40235 39.3788 3.76471Z" fill="#47ACDF"/>
</svg>

