<svg width="42" height="34" viewBox="0 0 42 34" fill="none" xmlns="http://www.w3.org/2000/svg">
<path d="M41.9201 4C40.3801 4.7 38.7201 5.16 37.0001 5.38C38.7601 4.32 40.1201 2.64 40.7601 0.62C39.1001 1.62 37.2601 2.32 35.3201 2.72C33.7401 1 31.5201 0 29.0001 0C24.3001 0 20.4601 3.84 20.4601 8.58C20.4601 9.26 20.5401 9.92 20.6801 10.54C13.5601 10.18 7.22008 6.76 3.00008 1.58C2.26008 2.84 1.84008 4.32 1.84008 5.88C1.84008 8.86 3.34008 11.5 5.66008 13C4.24008 13 2.92008 12.6 1.76008 12V12.06C1.76008 16.22 4.72008 19.7 8.64008 20.48C7.38153 20.8244 6.06027 20.8723 4.78008 20.62C5.32329 22.325 6.38715 23.8168 7.82211 24.8859C9.25707 25.9549 10.991 26.5474 12.7801 26.58C9.74734 28.9809 5.98807 30.2786 2.12008 30.26C1.44008 30.26 0.760078 30.22 0.0800781 30.14C3.88008 32.58 8.40008 34 13.2401 34C29.0001 34 37.6601 20.92 37.6601 9.58C37.6601 9.2 37.6601 8.84 37.6401 8.46C39.3201 7.26 40.7601 5.74 41.9201 4Z" fill="#1D1D1D"/>
</svg>
