<svg width="39" height="39" viewBox="0 0 39 39" fill="none" xmlns="http://www.w3.org/2000/svg">
<path d="M25.0859 22.3835C24.1099 20.1659 22.6885 18.1727 20.9099 16.5275C21.035 16.2938 21.1472 16.0534 21.2459 15.8075C21.3765 15.4741 21.4835 15.1319 21.5659 14.7835L21.6139 14.4955C21.6961 14.0683 21.7389 13.6345 21.7419 13.1995C21.7419 11.2517 20.9682 9.38374 19.5909 8.00648C18.2136 6.62921 16.3457 5.85547 14.3979 5.85547C12.4502 5.85547 10.5822 6.62921 9.20492 8.00648C7.82766 9.38374 7.05392 11.2517 7.05392 13.1995V13.2475C7.05868 13.6392 7.09615 14.0299 7.16592 14.4155C7.19792 14.5595 7.22992 14.7195 7.26192 14.8635C7.32592 15.1195 7.40592 15.3755 7.48592 15.6155C7.60278 15.9316 7.7363 16.2414 7.88592 16.5435C6.11265 18.1871 4.6919 20.174 3.70992 22.3835C3.25359 23.3512 3.09661 24.4332 3.25909 25.4908C3.42157 26.5484 3.89612 27.5333 4.62192 28.3195C7.04379 30.9068 10.3925 32.4287 13.9344 32.5517C17.4762 32.6747 20.9224 31.3887 23.5179 28.9755C23.7259 28.7515 23.9499 28.5435 24.1579 28.3195C24.8892 27.5367 25.3686 26.5524 25.5341 25.4941C25.6996 24.4357 25.5434 23.3521 25.0859 22.3835ZM14.3995 8.19147C15.3877 8.19305 16.3533 8.48744 17.1743 9.03745C17.9954 9.58747 18.635 10.3684 19.0124 11.2817C19.3899 12.195 19.4882 13.1997 19.295 14.1689C19.1019 15.138 18.6258 16.0282 17.927 16.727C17.2283 17.4258 16.3381 17.9018 15.3689 18.095C14.3998 18.2882 13.3951 18.1898 12.4818 17.8124C11.5685 17.4349 10.7875 16.7953 10.2375 15.9743C9.68749 15.1533 9.3931 14.1877 9.39151 13.1995C9.3894 12.5412 9.5175 11.889 9.76842 11.2805C10.0193 10.6719 10.3882 10.119 10.8536 9.65357C11.3191 9.18811 11.872 8.8193 12.4805 8.56838C13.0891 8.31745 13.7413 8.18936 14.3995 8.19147ZM22.3515 26.7355C22.2395 26.8635 22.1115 26.9755 21.9835 27.1035L21.8555 27.2315C19.7284 29.2043 16.9066 30.2545 14.0072 30.1526C11.1079 30.0506 8.36685 28.8048 6.38352 26.6875C5.9785 26.2451 5.71609 25.6911 5.63047 25.0975C5.54486 24.5039 5.64 23.8982 5.90352 23.3595C6.71776 21.5309 7.8808 19.8788 9.32752 18.4955C10.6891 19.8094 12.5074 20.5437 14.3995 20.5437C16.2917 20.5437 18.11 19.8094 19.4715 18.4955C20.9377 19.8841 22.1078 21.5549 22.9115 23.4075C23.17 23.9529 23.2547 24.5646 23.1543 25.1598C23.0538 25.755 22.7731 26.305 22.3499 26.7355H22.3515Z" fill="#FF4E16"/>
<path d="M34.7663 21.9339C33.9294 20.0396 32.7154 18.3356 31.1983 16.9259L31.1823 16.9099C31.2943 16.6859 31.4063 16.4619 31.5023 16.2379C31.5023 16.2379 31.5183 16.2379 31.5023 16.2219C31.583 16.0249 31.6473 15.8215 31.6943 15.6139C31.7125 15.5679 31.7233 15.5193 31.7263 15.4699C31.7858 15.2603 31.8286 15.0463 31.8543 14.8299V14.7819C31.8862 14.5379 31.9022 14.292 31.9023 14.0459C31.9033 13.2048 31.7346 12.3722 31.4063 11.5979C31.1671 11.0383 30.8493 10.5156 30.4623 10.0459C30.332 9.88901 30.1931 9.73944 30.0463 9.5979C29.1223 8.6761 27.9348 8.06401 26.6479 7.84618C25.361 7.62836 24.0382 7.81555 22.8623 8.3819C23.2691 9.0787 23.5812 9.82663 23.7903 10.6059C24.3474 10.3098 24.969 10.1559 25.5999 10.1579C26.6324 10.1583 27.6228 10.5676 28.3543 11.2962C29.0859 12.0248 29.4993 13.0134 29.5039 14.0459C29.5017 14.1957 29.491 14.3453 29.4719 14.4939C29.4622 14.6458 29.4354 14.7961 29.3919 14.9419C29.1977 15.8006 28.7158 16.5671 28.0261 17.1143C27.3363 17.6614 26.4803 17.9563 25.5999 17.9499C25.5036 17.9526 25.4073 17.9472 25.3119 17.9339C25.8413 18.6635 26.3121 19.4339 26.7199 20.2379C27.8253 20.05 28.8561 19.5568 29.6959 18.8139C30.9263 19.9835 31.9109 21.3869 32.5919 22.9419C32.7841 23.3494 32.8458 23.8064 32.7685 24.2503C32.6911 24.6942 32.4786 25.1034 32.1599 25.4219C32.0639 25.5339 31.9679 25.6299 31.8719 25.7259L31.7439 25.8379C30.482 27.0114 28.911 27.7997 27.2159 28.1099C26.8818 28.7642 26.4562 29.3677 25.9519 29.9019C25.7599 30.1099 25.5679 30.3179 25.3599 30.5259L25.2479 30.6379C25.3647 30.6512 25.4823 30.6566 25.5999 30.6539C28.5008 30.6561 31.2933 29.5517 33.4079 27.5659C33.6064 27.3914 33.7934 27.2044 33.9679 27.0059C34.5941 26.338 35.0051 25.4972 35.1475 24.5927C35.2898 23.6883 35.157 22.7619 34.7663 21.9339Z" fill="#FF4E16"/>
</svg>
