<svg width="20" height="20" viewBox="0 0 20 20" fill="none" xmlns="http://www.w3.org/2000/svg">
<path d="M0.569552 6.40815C1.72214 8.25617 4.05161 10.9357 6.55131 13.4354C9.05101 15.9351 11.7306 18.2647 13.5787 19.4173C16.1951 21.0464 18.4954 18.8676 19.6237 17.4475C19.8674 17.1386 20 16.7566 20 16.363C20 15.9695 19.8674 15.5875 19.6237 15.2785C18.6881 14.1022 17.3791 13.2803 15.913 12.949C15.5787 12.8793 15.2312 12.9095 14.9138 13.0357C14.5965 13.162 14.3233 13.3787 14.1282 13.6591C13.6419 14.3205 12.7957 14.9333 11.575 13.7175L8.92943 11.0719L6.27897 8.42135C5.06316 7.20555 5.67593 6.34974 6.33733 5.87315C6.61762 5.67687 6.83427 5.40284 6.96046 5.08477C7.08665 4.76671 7.11686 4.41845 7.04737 4.0834C6.71874 2.61758 5.89632 1.30943 4.71789 0.377802C4.40933 0.133219 4.02712 0 3.63338 0C3.23963 0 2.85746 0.133219 2.54889 0.377802C1.12883 1.50121 -1.04989 3.78202 0.579288 6.41789" fill="#1D1D1D"/>
</svg>
