<svg width="20" height="20" viewBox="0 0 20 20" fill="none" xmlns="http://www.w3.org/2000/svg">
<path d="M17.0663 2.92431C15.4295 1.28968 13.2766 0.273022 10.9744 0.047603C8.67217 -0.177815 6.36298 0.401998 4.44022 1.6881C2.51745 2.97421 1.10003 4.88724 0.429426 7.10115C-0.241182 9.31505 -0.123497 11.6928 0.762419 13.8297C1.64834 15.9666 3.24768 17.7303 5.28803 18.8203C7.32838 19.9103 9.68351 20.2592 11.9522 19.8076C14.221 19.3559 16.263 18.1317 17.7304 16.3434C19.1978 14.5552 19.9998 12.3135 19.9998 10.0003C20.0038 8.68531 19.7465 7.38268 19.243 6.16798C18.7394 4.95329 17.9995 3.85072 17.0663 2.92431ZM1.17534 10.5688H4.41467C4.46584 11.6531 4.6652 12.7253 5.00714 13.7555H2.00668C1.53215 12.7548 1.25013 11.6738 1.17534 10.5688ZM10.578 5.03606V1.76812C11.0993 2.22996 11.5789 2.73673 12.0114 3.28265C12.4578 3.83779 12.8498 4.43457 13.1819 5.06475L10.578 5.03606ZM13.7362 6.20671C14.1208 7.22809 14.3433 8.30331 14.3955 9.39346H10.5733V6.20671H13.7362ZM9.40747 1.76812V5.06009H6.7749C7.1019 4.4428 7.4858 3.85729 7.92159 3.31134C8.36605 2.7503 8.86365 2.2335 9.40747 1.76812ZM9.40747 6.23051V9.41259H5.58524C5.63747 8.32244 5.85994 7.24722 6.24458 6.22584L9.40747 6.23051ZM4.41467 9.41259H1.17534C1.25013 8.30759 1.53215 7.22656 2.00668 6.22584H5.00714C4.6652 7.2561 4.46584 8.32828 4.41467 9.41259ZM5.59002 10.5879H9.41226V13.7747H6.25414C5.86951 12.7533 5.64704 11.6781 5.5948 10.5879H5.59002ZM9.41704 14.9453V18.2419C8.88463 17.7826 8.39526 17.2757 7.95503 16.7274C7.50863 16.1723 7.11664 15.5755 6.78447 14.9453H9.41704ZM10.5876 18.2373V14.9453H13.2154C12.8918 15.5635 12.5094 16.1492 12.0735 16.6941C11.6252 17.2517 11.1279 17.7682 10.5876 18.2373ZM10.5876 13.7747V10.5879H14.4098C14.3576 11.6781 14.1351 12.7533 13.7505 13.7747H10.5876ZM15.5756 10.5879H18.815C18.7418 11.6926 18.4614 12.7737 17.9884 13.7747H14.9832C15.3274 12.745 15.5268 11.6725 15.5756 10.5879ZM15.5756 9.41259C15.5268 8.328 15.3274 7.2555 14.9832 6.22584H17.9884C18.4614 7.22685 18.7418 8.30789 18.815 9.41259H15.5756ZM17.3147 5.05519H14.5197C14.1036 4.15783 13.5806 3.31412 12.9622 2.54218C12.633 2.12907 12.2771 1.73795 11.8967 1.37153C14.1081 1.85958 16.0476 3.17823 17.3147 5.05519ZM8.10315 1.37153C7.72563 1.73932 7.37137 2.13035 7.04246 2.54218C6.42231 3.31294 5.89923 4.15686 5.48492 5.05519H2.68511C3.95397 3.17999 5.89273 1.86186 8.10315 1.37153ZM2.68511 14.9453H5.48492C5.89923 15.8436 6.42231 16.6876 7.04246 17.4583C7.37137 17.8701 7.72563 18.2612 8.10315 18.629C5.89273 18.1386 3.95397 16.8205 2.68511 14.9453ZM11.8967 18.629C12.2771 18.2626 12.633 17.8714 12.9622 17.4583C13.5806 16.6864 14.1036 15.8427 14.5197 14.9453H17.3147C16.0476 16.8223 14.1081 18.1409 11.8967 18.629Z" fill="#1D1D1D"/>
</svg>
