<svg width="40" height="36" viewBox="0 0 40 36" fill="none" xmlns="http://www.w3.org/2000/svg">
<path d="M38.9051 2.6655C38.7161 2.2185 38.4461 1.818 38.1011 1.47375C37.7568 1.12875 37.3563 0.85875 36.9093 0.66975C36.4473 0.474 35.9561 0.375 35.4498 0.375H23.3966C22.9826 0.375 22.6466 0.71175 22.6466 1.125C22.6466 1.53825 22.9826 1.875 23.3966 1.875H35.4498C36.6881 1.87725 37.6976 2.88675 37.6998 4.125V21.375H2.2998V4.125C2.30205 2.88675 3.31155 1.87725 4.5498 1.875H16.6458C17.0598 1.875 17.3958 1.53825 17.3958 1.125C17.3958 0.71175 17.0598 0.375 16.6458 0.375H4.5498C4.04355 0.375 3.5523 0.474 3.0903 0.66975C2.6433 0.85875 2.2428 1.12875 1.8978 1.47375C1.55355 1.818 1.28355 2.2185 1.09455 2.6655C0.898805 3.1275 0.799805 3.61875 0.799805 4.125V24.375C0.799805 24.8813 0.898805 25.3725 1.09455 25.8345C1.28355 26.2815 1.55355 26.682 1.8978 27.0263C2.2428 27.3713 2.6433 27.6413 3.0903 27.8303C3.5523 28.026 4.04355 28.125 4.5498 28.125H15.8748V30.75H14.7498C12.6821 30.75 10.9998 32.4323 10.9998 34.5V34.875C10.9998 35.2892 11.3356 35.625 11.7498 35.625H28.2498C28.664 35.625 28.9998 35.2892 28.9998 34.875V34.5C28.9998 32.4323 27.3176 30.75 25.2498 30.75H24.1248V28.125H35.4498C35.9561 28.125 36.4473 28.026 36.9093 27.8303C37.3563 27.6413 37.7568 27.3713 38.1011 27.0263C38.4461 26.682 38.7161 26.2815 38.9051 25.8345C39.1008 25.3725 39.1998 24.8813 39.1998 24.375V4.125C39.1998 3.61875 39.1008 3.1275 38.9051 2.6655ZM25.2498 32.25C26.3627 32.25 27.2895 33.0623 27.4685 34.125H12.5311C12.7102 33.0623 13.637 32.25 14.7498 32.25H16.6248C17.039 32.25 17.3748 31.9142 17.3748 31.5V28.125H22.6248V31.5C22.6248 31.9142 22.9606 32.25 23.3748 32.25H25.2498ZM37.6998 24.375C37.6976 25.6133 36.6881 26.6228 35.4498 26.625H4.5498C3.31155 26.6228 2.30205 25.6133 2.2998 24.375V22.875H37.6998V24.375Z" fill="white"/>
</svg>
